<?xml version="1.0" encoding="UTF-8"?>
<svg width="200" height="200" viewBox="0 0 200 200" fill="none" xmlns="http://www.w3.org/2000/svg">
    <!-- Background Circle -->
    <circle cx="100" cy="100" r="95" fill="#F8F9FA" stroke="#4CAF50" stroke-width="8"/>
    
    <!-- Apple Body -->
    <path d="M120 50C120 65 140 70 140 85C140 110 110 130 100 150C90 130 60 110 60 85C60 70 80 65 80 50C80 30 95 20 100 20C105 20 120 30 120 50Z" fill="#4CAF50"/>
    
    <!-- Apple Stem -->
    <rect x="95" y="30" width="10" height="15" rx="2" fill="#8D6E63"/>
    
    <!-- Apple Leaf -->
    <path d="M110 40C110 40 125 30 130 35C135 40 120 50 120 50L110 45V40Z" fill="#8BC34A"/>
    
    <!-- Fork Handle -->
    <rect x="70" y="100" width="10" height="60" rx="5" fill="#FF9800"/>
    
    <!-- Fork Prongs -->
    <rect x="50" y="140" width="50" height="10" rx="5" fill="#FF9800"/>
    <rect x="55" y="150" width="10" height="15" rx="5" fill="#FF9800"/>
    <rect x="85" y="150" width="10" height="15" rx="5" fill="#FF9800"/>
    
    <!-- Cross Prong -->
    <rect x="70" y="150" width="10" height="15" rx="5" transform="rotate(90 75 157.5)" fill="#FF9800"/>
</svg>
